<mxfile host="app.diagrams.net" agent="Mozilla/5.0 (Windows NT 10.0; Win64; x64) AppleWebKit/537.36 (KHTML, like Gecko) Chrome/131.0.0.0 Safari/537.36" version="26.0.4">
  <diagram name="Page-1" id="lgnwb1GU9KrPyDAq2N5j">
    <mxGraphModel dx="3195" dy="2113" grid="1" gridSize="10" guides="1" tooltips="1" connect="1" arrows="1" fold="1" page="1" pageScale="1" pageWidth="850" pageHeight="1100" math="0" shadow="0">
      <root>
        <mxCell id="0" />
        <mxCell id="1" parent="0" />
        <mxCell id="q2eshRp00GC0qBBB4O16-1" value="&lt;u&gt;Environment&lt;/u&gt;" style="shape=umlLifeline;perimeter=lifelinePerimeter;whiteSpace=wrap;html=1;container=1;dropTarget=0;collapsible=0;recursiveResize=0;outlineConnect=0;portConstraint=eastwest;newEdgeStyle={&quot;curved&quot;:0,&quot;rounded&quot;:0};" vertex="1" parent="1">
          <mxGeometry x="410" y="90" width="100" height="580" as="geometry" />
        </mxCell>
        <mxCell id="q2eshRp00GC0qBBB4O16-51" value="" style="html=1;points=[[0,0,0,0,5],[0,1,0,0,-5],[1,0,0,0,5],[1,1,0,0,-5]];perimeter=orthogonalPerimeter;outlineConnect=0;targetShapes=umlLifeline;portConstraint=eastwest;newEdgeStyle={&quot;curved&quot;:0,&quot;rounded&quot;:0};fillColor=#000000;" vertex="1" parent="q2eshRp00GC0qBBB4O16-1">
          <mxGeometry x="45" y="210" width="10" height="30" as="geometry" />
        </mxCell>
        <mxCell id="q2eshRp00GC0qBBB4O16-3" value="&lt;u&gt;Inventory&lt;/u&gt;" style="shape=umlLifeline;perimeter=lifelinePerimeter;whiteSpace=wrap;html=1;container=1;dropTarget=0;collapsible=0;recursiveResize=0;outlineConnect=0;portConstraint=eastwest;newEdgeStyle={&quot;curved&quot;:0,&quot;rounded&quot;:0};" vertex="1" parent="1">
          <mxGeometry x="600" y="90" width="100" height="580" as="geometry" />
        </mxCell>
        <mxCell id="q2eshRp00GC0qBBB4O16-4" value="" style="html=1;points=[[0,0,0,0,5],[0,1,0,0,-5],[1,0,0,0,5],[1,1,0,0,-5]];perimeter=orthogonalPerimeter;outlineConnect=0;targetShapes=umlLifeline;portConstraint=eastwest;newEdgeStyle={&quot;curved&quot;:0,&quot;rounded&quot;:0};fillColor=#000000;" vertex="1" parent="q2eshRp00GC0qBBB4O16-3">
          <mxGeometry x="45" y="290" width="10" height="60" as="geometry" />
        </mxCell>
        <mxCell id="q2eshRp00GC0qBBB4O16-5" value="&lt;u&gt;WorldInteraction&lt;/u&gt;" style="shape=umlLifeline;perimeter=lifelinePerimeter;whiteSpace=wrap;html=1;container=1;dropTarget=0;collapsible=0;recursiveResize=0;outlineConnect=0;portConstraint=eastwest;newEdgeStyle={&quot;curved&quot;:0,&quot;rounded&quot;:0};" vertex="1" parent="1">
          <mxGeometry x="200" y="90" width="110" height="580" as="geometry" />
        </mxCell>
        <mxCell id="q2eshRp00GC0qBBB4O16-6" value="" style="html=1;points=[[0,0,0,0,5],[0,1,0,0,-5],[1,0,0,0,5],[1,1,0,0,-5]];perimeter=orthogonalPerimeter;outlineConnect=0;targetShapes=umlLifeline;portConstraint=eastwest;newEdgeStyle={&quot;curved&quot;:0,&quot;rounded&quot;:0};fillColor=#000000;" vertex="1" parent="q2eshRp00GC0qBBB4O16-5">
          <mxGeometry x="50" y="50" width="10" height="40" as="geometry" />
        </mxCell>
        <mxCell id="q2eshRp00GC0qBBB4O16-7" value="" style="html=1;points=[[0,0,0,0,5],[0,1,0,0,-5],[1,0,0,0,5],[1,1,0,0,-5]];perimeter=orthogonalPerimeter;outlineConnect=0;targetShapes=umlLifeline;portConstraint=eastwest;newEdgeStyle={&quot;curved&quot;:0,&quot;rounded&quot;:0};fillColor=#000000;" vertex="1" parent="q2eshRp00GC0qBBB4O16-5">
          <mxGeometry x="50" y="120" width="10" height="330" as="geometry" />
        </mxCell>
        <mxCell id="q2eshRp00GC0qBBB4O16-8" value="" style="html=1;points=[[0,0,0,0,5],[0,1,0,0,-5],[1,0,0,0,5],[1,1,0,0,-5]];perimeter=orthogonalPerimeter;outlineConnect=0;targetShapes=umlLifeline;portConstraint=eastwest;newEdgeStyle={&quot;curved&quot;:0,&quot;rounded&quot;:0};" vertex="1" parent="q2eshRp00GC0qBBB4O16-5">
          <mxGeometry x="50" y="138" width="10" height="40" as="geometry" />
        </mxCell>
        <mxCell id="q2eshRp00GC0qBBB4O16-9" value="" style="html=1;points=[[0,0,0,0,5],[0,1,0,0,-5],[1,0,0,0,5],[1,1,0,0,-5]];perimeter=orthogonalPerimeter;outlineConnect=0;targetShapes=umlLifeline;portConstraint=eastwest;newEdgeStyle={&quot;curved&quot;:0,&quot;rounded&quot;:0};" vertex="1" parent="q2eshRp00GC0qBBB4O16-5">
          <mxGeometry x="50" y="200" width="10" height="40" as="geometry" />
        </mxCell>
        <mxCell id="q2eshRp00GC0qBBB4O16-10" value="" style="html=1;points=[[0,0,0,0,5],[0,1,0,0,-5],[1,0,0,0,5],[1,1,0,0,-5]];perimeter=orthogonalPerimeter;outlineConnect=0;targetShapes=umlLifeline;portConstraint=eastwest;newEdgeStyle={&quot;curved&quot;:0,&quot;rounded&quot;:0};fillColor=#000000;" vertex="1" parent="q2eshRp00GC0qBBB4O16-5">
          <mxGeometry x="50" y="350" width="10" height="150" as="geometry" />
        </mxCell>
        <mxCell id="q2eshRp00GC0qBBB4O16-11" value="" style="html=1;points=[[0,0,0,0,5],[0,1,0,0,-5],[1,0,0,0,5],[1,1,0,0,-5]];perimeter=orthogonalPerimeter;outlineConnect=0;targetShapes=umlLifeline;portConstraint=eastwest;newEdgeStyle={&quot;curved&quot;:0,&quot;rounded&quot;:0};" vertex="1" parent="q2eshRp00GC0qBBB4O16-5">
          <mxGeometry x="50" y="289" width="10" height="61" as="geometry" />
        </mxCell>
        <mxCell id="q2eshRp00GC0qBBB4O16-15" value="&lt;u&gt;WorldUI&lt;/u&gt;" style="shape=umlLifeline;perimeter=lifelinePerimeter;whiteSpace=wrap;html=1;container=1;dropTarget=0;collapsible=0;recursiveResize=0;outlineConnect=0;portConstraint=eastwest;newEdgeStyle={&quot;curved&quot;:0,&quot;rounded&quot;:0};" vertex="1" parent="1">
          <mxGeometry x="-30" y="90" width="120" height="580" as="geometry" />
        </mxCell>
        <mxCell id="q2eshRp00GC0qBBB4O16-16" value="" style="html=1;points=[[0,0,0,0,5],[0,1,0,0,-5],[1,0,0,0,5],[1,1,0,0,-5]];perimeter=orthogonalPerimeter;outlineConnect=0;targetShapes=umlLifeline;portConstraint=eastwest;newEdgeStyle={&quot;curved&quot;:0,&quot;rounded&quot;:0};fillColor=#000000;" vertex="1" parent="q2eshRp00GC0qBBB4O16-15">
          <mxGeometry x="55" y="50" width="10" height="450" as="geometry" />
        </mxCell>
        <mxCell id="q2eshRp00GC0qBBB4O16-17" value="" style="shape=umlLifeline;perimeter=lifelinePerimeter;whiteSpace=wrap;html=1;container=1;dropTarget=0;collapsible=0;recursiveResize=0;outlineConnect=0;portConstraint=eastwest;newEdgeStyle={&quot;curved&quot;:0,&quot;rounded&quot;:0};participant=umlActor;" vertex="1" parent="1">
          <mxGeometry x="-225" y="80" width="30" height="580" as="geometry" />
        </mxCell>
        <mxCell id="q2eshRp00GC0qBBB4O16-18" value="" style="html=1;points=[[0,0,0,0,5],[0,1,0,0,-5],[1,0,0,0,5],[1,1,0,0,-5]];perimeter=orthogonalPerimeter;outlineConnect=0;targetShapes=umlLifeline;portConstraint=eastwest;newEdgeStyle={&quot;curved&quot;:0,&quot;rounded&quot;:0};fillColor=#000000;" vertex="1" parent="q2eshRp00GC0qBBB4O16-17">
          <mxGeometry x="10" y="60" width="10" height="440" as="geometry" />
        </mxCell>
        <mxCell id="q2eshRp00GC0qBBB4O16-19" value="&amp;nbsp;Customer" style="text;html=1;align=center;verticalAlign=middle;resizable=0;points=[];autosize=1;strokeColor=none;fillColor=none;" vertex="1" parent="1">
          <mxGeometry x="-250" y="110" width="80" height="30" as="geometry" />
        </mxCell>
        <mxCell id="q2eshRp00GC0qBBB4O16-20" value="DisplayWorld()" style="html=1;verticalAlign=bottom;endArrow=block;curved=0;rounded=0;" edge="1" parent="1">
          <mxGeometry x="-0.0021" width="80" relative="1" as="geometry">
            <mxPoint x="250" y="180" as="sourcePoint" />
            <mxPoint x="35" y="180" as="targetPoint" />
            <mxPoint as="offset" />
          </mxGeometry>
        </mxCell>
        <mxCell id="q2eshRp00GC0qBBB4O16-21" value="InputChar()" style="html=1;verticalAlign=bottom;endArrow=block;curved=0;rounded=0;" edge="1" parent="1">
          <mxGeometry x="0.0001" width="80" relative="1" as="geometry">
            <mxPoint x="-210.36956521739125" y="200.0000000000001" as="sourcePoint" />
            <mxPoint x="25" y="200.0000000000001" as="targetPoint" />
            <mxPoint as="offset" />
          </mxGeometry>
        </mxCell>
        <mxCell id="q2eshRp00GC0qBBB4O16-22" value="StartGame()" style="html=1;verticalAlign=bottom;endArrow=block;curved=0;rounded=0;" edge="1" parent="1">
          <mxGeometry width="80" relative="1" as="geometry">
            <mxPoint x="35" y="-650" as="sourcePoint" />
            <mxPoint x="250" y="-650" as="targetPoint" />
          </mxGeometry>
        </mxCell>
        <mxCell id="q2eshRp00GC0qBBB4O16-23" value="ModifyEnvironment()" style="html=1;verticalAlign=bottom;endArrow=block;curved=0;rounded=0;" edge="1" parent="1" target="q2eshRp00GC0qBBB4O16-29">
          <mxGeometry width="80" relative="1" as="geometry">
            <mxPoint x="259.9999999999998" y="228" as="sourcePoint" />
            <mxPoint x="455" y="228" as="targetPoint" />
          </mxGeometry>
        </mxCell>
        <mxCell id="q2eshRp00GC0qBBB4O16-24" value="" style="endArrow=open;endSize=12;dashed=1;html=1;rounded=0;" edge="1" parent="1" source="q2eshRp00GC0qBBB4O16-29">
          <mxGeometry width="160" relative="1" as="geometry">
            <mxPoint x="455" y="267" as="sourcePoint" />
            <mxPoint x="260" y="267" as="targetPoint" />
            <Array as="points">
              <mxPoint x="820" y="270" />
            </Array>
          </mxGeometry>
        </mxCell>
        <mxCell id="q2eshRp00GC0qBBB4O16-25" value="ShowDialouge()" style="html=1;verticalAlign=bottom;endArrow=block;curved=0;rounded=0;exitX=0;exitY=1;exitDx=0;exitDy=-5;exitPerimeter=0;" edge="1" parent="1">
          <mxGeometry x="0.0047" width="80" relative="1" as="geometry">
            <mxPoint x="250" y="339.9999999999999" as="sourcePoint" />
            <mxPoint x="35" y="339.9999999999999" as="targetPoint" />
            <mxPoint as="offset" />
          </mxGeometry>
        </mxCell>
        <mxCell id="q2eshRp00GC0qBBB4O16-26" value="PlayerInput()" style="html=1;verticalAlign=bottom;endArrow=block;curved=0;rounded=0;" edge="1" parent="1">
          <mxGeometry width="80" relative="1" as="geometry">
            <mxPoint x="-205" y="350" as="sourcePoint" />
            <mxPoint x="25" y="350" as="targetPoint" />
          </mxGeometry>
        </mxCell>
        <mxCell id="q2eshRp00GC0qBBB4O16-27" value="return()" style="text;html=1;align=center;verticalAlign=middle;resizable=0;points=[];autosize=1;strokeColor=none;fillColor=none;" vertex="1" parent="1">
          <mxGeometry x="330" y="240" width="60" height="30" as="geometry" />
        </mxCell>
        <mxCell id="q2eshRp00GC0qBBB4O16-28" value="Dungeon and wishes" style="shape=umlFrame;whiteSpace=wrap;html=1;pointerEvents=0;width=110;height=30;" vertex="1" parent="1">
          <mxGeometry x="-330" y="10" width="1260" height="710" as="geometry" />
        </mxCell>
        <mxCell id="q2eshRp00GC0qBBB4O16-29" value="&lt;u&gt;Item&lt;/u&gt;" style="shape=umlLifeline;perimeter=lifelinePerimeter;whiteSpace=wrap;html=1;container=1;dropTarget=0;collapsible=0;recursiveResize=0;outlineConnect=0;portConstraint=eastwest;newEdgeStyle={&quot;curved&quot;:0,&quot;rounded&quot;:0};" vertex="1" parent="1">
          <mxGeometry x="790" y="90" width="100" height="580" as="geometry" />
        </mxCell>
        <mxCell id="q2eshRp00GC0qBBB4O16-44" value="" style="html=1;points=[[0,0,0,0,5],[0,1,0,0,-5],[1,0,0,0,5],[1,1,0,0,-5]];perimeter=orthogonalPerimeter;outlineConnect=0;targetShapes=umlLifeline;portConstraint=eastwest;newEdgeStyle={&quot;curved&quot;:0,&quot;rounded&quot;:0};fillColor=#000000;" vertex="1" parent="q2eshRp00GC0qBBB4O16-29">
          <mxGeometry x="45" y="138" width="10" height="42" as="geometry" />
        </mxCell>
        <mxCell id="q2eshRp00GC0qBBB4O16-33" value="AddItem()" style="html=1;verticalAlign=bottom;endArrow=block;curved=0;rounded=0;" edge="1" parent="1">
          <mxGeometry width="80" relative="1" as="geometry">
            <mxPoint x="260" y="380" as="sourcePoint" />
            <mxPoint x="645" y="380" as="targetPoint" />
          </mxGeometry>
        </mxCell>
        <mxCell id="q2eshRp00GC0qBBB4O16-34" value="InspectInput()" style="html=1;verticalAlign=bottom;endArrow=block;curved=0;rounded=0;" edge="1" parent="1">
          <mxGeometry width="80" relative="1" as="geometry">
            <mxPoint x="30" y="370" as="sourcePoint" />
            <mxPoint x="250" y="370.5" as="targetPoint" />
          </mxGeometry>
        </mxCell>
        <mxCell id="q2eshRp00GC0qBBB4O16-35" value="" style="endArrow=open;endSize=12;dashed=1;html=1;rounded=0;" edge="1" parent="1">
          <mxGeometry width="160" relative="1" as="geometry">
            <mxPoint x="645" y="440" as="sourcePoint" />
            <mxPoint x="260" y="440" as="targetPoint" />
          </mxGeometry>
        </mxCell>
        <mxCell id="q2eshRp00GC0qBBB4O16-36" value="return()" style="text;html=1;align=center;verticalAlign=middle;resizable=0;points=[];autosize=1;strokeColor=none;fillColor=none;" vertex="1" parent="1">
          <mxGeometry x="430" y="410" width="60" height="30" as="geometry" />
        </mxCell>
        <mxCell id="q2eshRp00GC0qBBB4O16-48" value="CheckInput()" style="html=1;verticalAlign=bottom;endArrow=block;curved=0;rounded=0;" edge="1" parent="1" source="q2eshRp00GC0qBBB4O16-16">
          <mxGeometry width="80" relative="1" as="geometry">
            <mxPoint x="30" y="210" as="sourcePoint" />
            <mxPoint x="250" y="210" as="targetPoint" />
          </mxGeometry>
        </mxCell>
        <mxCell id="q2eshRp00GC0qBBB4O16-50" value="DisplayItem()" style="html=1;verticalAlign=bottom;endArrow=block;curved=0;rounded=0;exitX=0;exitY=1;exitDx=0;exitDy=-5;exitPerimeter=0;" edge="1" parent="1" target="q2eshRp00GC0qBBB4O16-16">
          <mxGeometry x="0.0047" width="80" relative="1" as="geometry">
            <mxPoint x="260" y="479.9999999999999" as="sourcePoint" />
            <mxPoint x="40" y="480" as="targetPoint" />
            <mxPoint as="offset" />
          </mxGeometry>
        </mxCell>
        <mxCell id="q2eshRp00GC0qBBB4O16-53" value="ModifyEnvironment()" style="html=1;verticalAlign=bottom;endArrow=block;curved=0;rounded=0;" edge="1" parent="1">
          <mxGeometry width="80" relative="1" as="geometry">
            <mxPoint x="262.4999999999998" y="300" as="sourcePoint" />
            <mxPoint x="457.5" y="300" as="targetPoint" />
          </mxGeometry>
        </mxCell>
        <mxCell id="q2eshRp00GC0qBBB4O16-55" value="" style="endArrow=open;endSize=12;dashed=1;html=1;rounded=0;" edge="1" parent="1">
          <mxGeometry width="160" relative="1" as="geometry">
            <mxPoint x="460" y="330" as="sourcePoint" />
            <mxPoint x="260" y="330" as="targetPoint" />
            <Array as="points" />
          </mxGeometry>
        </mxCell>
        <mxCell id="q2eshRp00GC0qBBB4O16-56" value="return()" style="text;html=1;align=center;verticalAlign=middle;resizable=0;points=[];autosize=1;strokeColor=none;fillColor=none;" vertex="1" parent="1">
          <mxGeometry x="330" y="300" width="60" height="30" as="geometry" />
        </mxCell>
      </root>
    </mxGraphModel>
  </diagram>
</mxfile>
